<?xml version="1.0" standalone="no"?>
<!DOCTYPE svg PUBLIC "-//W3C//DTD SVG 20010904//EN"
 "http://www.w3.org/TR/2001/REC-SVG-20010904/DTD/svg10.dtd">
<svg version="1.0" xmlns="http://www.w3.org/2000/svg"
 width="512.000000pt" height="512.000000pt" viewBox="0 0 512.000000 512.000000"
 preserveAspectRatio="xMidYMid meet">
<metadata>
Created by potrace 1.11, written by Peter Selinger 2001-2013
</metadata>
<g transform="translate(0.000000,512.000000) scale(0.100000,-0.100000)"
fill="#000000" stroke="none">
<path d="M241 4664 c-68 -18 -109 -43 -156 -95 -76 -84 -79 -101 -83 -401 l-4
-268 1759 0 c967 0 2119 -3 2561 -7 l802 -6 0 266 c0 248 -1 270 -22 324 -29
77 -104 152 -181 181 l-58 22 -2282 -1 c-1965 0 -2290 -2 -2336 -15z m1143
-166 c53 -16 121 -84 135 -134 44 -160 -53 -294 -214 -294 -123 0 -215 94
-215 220 0 155 140 254 294 208z m676 -208 c0 -174 -3 -220 -13 -220 -7 0 -36
11 -64 25 -91 46 -137 146 -113 247 19 78 105 156 183 167 4 1 7 -98 7 -219z"/>
<path d="M2955 3626 c-39 -17 -84 -63 -100 -101 -36 -85 -950 -2566 -958
-2600 -18 -79 25 -165 104 -205 80 -42 197 -13 244 59 25 38 973 2595 982
2646 7 43 -13 109 -44 146 -52 61 -157 86 -228 55z"/>
<path d="M1505 2966 c-16 -7 -232 -145 -480 -305 -472 -306 -525 -347 -546
-424 -14 -51 -6 -134 15 -176 28 -53 70 -84 426 -318 629 -413 609 -401 698
-389 188 26 276 248 152 388 -23 27 -146 114 -328 233 -160 104 -288 193 -286
197 2 3 131 88 287 188 170 110 299 199 324 226 61 65 78 146 51 238 -16 54
-90 128 -144 144 -53 16 -131 15 -169 -2z"/>
<path d="M3425 2961 c-46 -20 -101 -79 -121 -127 -20 -47 -17 -141 5 -189 10
-22 34 -54 52 -71 19 -18 160 -114 314 -213 154 -100 281 -185 283 -190 1 -5
-129 -95 -289 -201 -161 -106 -305 -206 -320 -223 -16 -17 -35 -51 -44 -76
-32 -95 -13 -173 60 -247 77 -78 179 -95 272 -47 63 33 916 593 946 621 91 86
89 268 -3 346 -44 37 -926 605 -965 622 -48 20 -141 18 -190 -5z"/>
</g>
</svg>
